<svg width="50" height="42" viewBox="0 0 50 42" fill="none" xmlns="http://www.w3.org/2000/svg">
<rect width="50" height="42" rx="4" fill="black"/>
<path d="M8.50345 35.8277C7.16552 35.8277 6.18621 35.4693 5.56552 34.7525C4.94483 34.0357 4.63449 32.7589 4.63449 30.9221C4.63449 30.1381 4.64828 29.4773 4.67587 28.9397C4.71725 28.3797 4.75173 27.8421 4.77931 27.3269C4.82069 26.7893 4.84138 26.1733 4.84138 25.4789C4.84138 25.0981 4.75863 24.7285 4.59311 24.3701C4.42759 24.0117 4.14483 23.7093 3.74483 23.4629C3.34483 23.2165 2.78621 23.0821 2.06897 23.0597V19.6997C2.78621 19.6773 3.34483 19.5429 3.74483 19.2965C4.14483 19.0501 4.42759 18.7477 4.59311 18.3893C4.75863 18.0309 4.84138 17.6613 4.84138 17.2805C4.84138 16.5861 4.82069 15.9813 4.77931 15.4661C4.75173 14.9285 4.71725 14.3909 4.67587 13.8533C4.64828 13.2933 4.63449 12.6213 4.63449 11.8373C4.63449 9.9781 4.94483 8.7013 5.56552 8.0069C6.18621 7.2901 7.16552 6.9317 8.50345 6.9317H10.2207V9.9557H9.45518C8.93104 9.9557 8.53104 10.0117 8.25518 10.1237C7.97932 10.2133 7.78621 10.4149 7.67587 10.7285C7.57932 11.0197 7.53104 11.4565 7.53104 12.0389C7.53104 12.8901 7.54483 13.7301 7.57242 14.5589C7.60001 15.3877 7.6138 16.2949 7.6138 17.2805C7.6138 18.6245 7.44138 19.5877 7.09656 20.1701C6.76552 20.7301 6.22069 21.1109 5.46207 21.3125V21.4469C6.22069 21.6485 6.76552 22.0405 7.09656 22.6229C7.44138 23.1829 7.6138 24.1349 7.6138 25.4789C7.6138 26.4421 7.60001 27.3493 7.57242 28.2005C7.54483 29.0293 7.53104 29.8693 7.53104 30.7205C7.53104 31.3029 7.57932 31.7397 7.67587 32.0309C7.78621 32.3445 7.97932 32.5461 8.25518 32.6357C8.53104 32.7477 8.93104 32.8037 9.45518 32.8037H10.2207V35.8277H8.50345Z" fill="white"/>
<path d="M13.7299 30.7205V7.3349H17.2885V19.9013H17.3712L20.5161 13.9205H24.3643L17.2885 26.6213V30.7205H13.7299ZM20.7643 30.7205L18.1574 23.5973L20.185 20.0357L24.6126 30.7205H20.7643Z" fill="white"/>
<path d="M29.239 31.1237C28.0804 31.1237 27.2459 30.5077 26.7356 29.2757C26.2252 28.0213 25.97 26.3525 25.97 24.2693V13.9205H29.5287V23.5301C29.5287 24.4709 29.6045 25.1541 29.7563 25.5797C29.9218 26.0053 30.239 26.2181 30.708 26.2181C31.0114 26.2181 31.2804 26.1285 31.5149 25.9493C31.7494 25.7477 31.9976 25.3445 32.2597 24.7397V13.9205H35.8183V30.7205H32.9218L32.6735 28.5029H32.5907C32.1632 29.3093 31.6804 29.9477 31.1425 30.4181C30.6045 30.8885 29.97 31.1237 29.239 31.1237Z" fill="white"/>
<path d="M39.4309 35.8277V32.8037H40.1964C40.7206 32.8037 41.1137 32.7477 41.3758 32.6357C41.6516 32.5461 41.8378 32.3445 41.9344 32.0309C42.0447 31.7397 42.0999 31.3029 42.0999 30.7205C42.0999 29.8693 42.0861 29.0293 42.0585 28.2005C42.0447 27.3493 42.0378 26.4421 42.0378 25.4789C42.0378 24.1349 42.2034 23.1829 42.5344 22.6229C42.8792 22.0405 43.4309 21.6485 44.1896 21.4469V21.3125C43.4309 21.1109 42.8792 20.7301 42.5344 20.1701C42.2034 19.5877 42.0378 18.6245 42.0378 17.2805C42.0378 16.2949 42.0447 15.3877 42.0585 14.5589C42.0861 13.7301 42.0999 12.8901 42.0999 12.0389C42.0999 11.4565 42.0447 11.0197 41.9344 10.7285C41.8378 10.4149 41.6516 10.2133 41.3758 10.1237C41.1137 10.0117 40.7206 9.9557 40.1964 9.9557H39.4309V6.9317H41.1482C42.4999 6.9317 43.4792 7.2901 44.0861 8.0069C44.7068 8.7013 45.0171 9.9781 45.0171 11.8373C45.0171 12.6213 44.9965 13.2933 44.9551 13.8533C44.9275 14.3909 44.893 14.9285 44.8516 15.4661C44.8102 15.9813 44.7896 16.5861 44.7896 17.2805C44.7896 17.6613 44.8723 18.0309 45.0378 18.3893C45.2034 18.7477 45.4861 19.0501 45.8861 19.2965C46.2999 19.5429 46.8654 19.6773 47.5827 19.6997V23.0597C46.8654 23.0821 46.2999 23.2165 45.8861 23.4629C45.4861 23.7093 45.2034 24.0117 45.0378 24.3701C44.8723 24.7285 44.7896 25.0981 44.7896 25.4789C44.7896 26.1733 44.8102 26.7893 44.8516 27.3269C44.893 27.8421 44.9275 28.3797 44.9551 28.9397C44.9965 29.4773 45.0171 30.1381 45.0171 30.9221C45.0171 32.7589 44.7068 34.0357 44.0861 34.7525C43.4792 35.4693 42.4999 35.8277 41.1482 35.8277H39.4309Z" fill="white"/>
</svg>
