<svg width="50" height="50" viewBox="0 0 50 50" fill="none" xmlns="http://www.w3.org/2000/svg">
<rect x="0.5" y="0.5" width="49" height="49" fill="white" stroke="black"/>
<path d="M5.08801 42V7.82401H9.02401V30.96H9.21601L21.792 18.672H26.304L9.02401 35.664V42H5.08801ZM23.136 42L14.016 29.568L16.416 27.024L27.552 42H23.136Z" fill="black"/>
<path d="M32.808 42.576C30.024 42.576 27.976 41.776 26.664 40.176C25.352 38.576 24.696 36.24 24.696 33.168V18.672H28.68V32.64C28.68 34.848 29.08 36.496 29.88 37.584C30.712 38.64 32.104 39.168 34.056 39.168C35.4 39.168 36.616 38.832 37.704 38.16C38.824 37.456 40.024 36.352 41.304 34.848V18.672H45.24V42H42.024L41.688 37.92H41.496C40.312 39.264 39.016 40.384 37.608 41.28C36.2 42.144 34.6 42.576 32.808 42.576Z" fill="black"/>
</svg>
